<svg xmlns="http://www.w3.org/2000/svg" version="1.1" xmlns:xlink="http://www.w3.org/1999/xlink" width="1500" height="1500" viewBox="0 0 1500 1500"><rect width="1500" height="1500" x="0" y="0" id="background" stroke="transparent" fill="#990708"></rect><svg xml:space="preserve" width="1000" height="1000" data-version="2" data-id="lg_m3RqO8C7jEVuJZ8Xfs" viewBox="0 0 536 173" x="250" y="250"><rect width="100%" height="100%" fill="transparent"></rect><g transform="translate(343.17 108.96)"><filter id="a" width="140%" height="140%" x="-20%" y="-20%"><feGaussianBlur in="SourceAlpha"></feGaussianBlur><feOffset result="oBlur"></feOffset><feFlood flood-color="#000" flood-opacity="1"></feFlood><feComposite in2="oBlur" operator="in"></feComposite><feMerge><feMergeNode></feMergeNode><feMergeNode in="SourceGraphic"></feMergeNode></feMerge></filter><g filter="url(#a)"><path fill="#f3f2ee" d="M-187.265 20.065h7.26l.05-58.37h-7.27v-3.31h27.57q13.17 0 19.31 5.39 6.14 5.4 6.14 15.38t-6.4 16.2q-6.39 6.23-18.88 6.23h-9.05v18.48h10.75v3.31h-29.48Zm26.72-21.41q10.15 0 13.25-11.05 1.15-3.95 1.15-8.15 0-8.42-3.35-12.83-3.62-4.93-10.96-4.93h-8.08v36.96Z"></path><rect width="53.06" height="64.99" x="-26.53" y="-32.49" fill="none" rx="0" ry="0" transform="translate(-160.24 -8.62)"></rect><path fill="#f3f2ee" d="M-98.995 18.575q-4.92 5.65-13.21 5.65-6.28 0-10.83-3.5-4.55-3.51-4.55-9.18t4.47-8.92q4.46-3.25 11.49-3.25t11.74 3.52v-10.11q0-5.14-1.27-6.96-1.28-1.83-3-2.55-1.72-.72-3.8-.72-3.27 0-5.52.74-2.25.74-3.02 1.51 1.96.59 3.02 2.97.34.85.34 2.04 0 2.34-1.7 3.89-1.7 1.55-3.4 1.55-2.97 0-4.63-1.57-1.66-1.58-1.66-3.78 0-2.21.81-3.64.81-1.42 2.17-2.57 2.59-2.16 6.52-3.31 3.93-1.15 7.37-1.15 9.56 0 14.14 3.87 4.59 3.86 4.59 10.79v22.64q0 3.53 1.74 3.53 1.75 0 3.36-2.13l2.21 1.83q-2.89 4.37-9.43 4.37-2.3 0-4.65-1.44-2.36-1.44-3.3-4.12m-.76-11.89q-3.61-3.53-7.9-3.53-4.29 0-6.46 2.02t-2.17 6.48q0 6.58 4.64 7.98 1.31.43 2.67.43 3.87 0 7.39-2.98 1.02-.89 1.83-1.91Z"></path><rect width="45.97" height="44.99" x="-22.98" y="-22.5" fill="none" rx="0" ry="0" transform="translate(-104.1 2.23)"></rect><path fill="#f3f2ee" d="M-57.995 24.225q-15.17 0-15.17-14.1v-26.89h-5.14v-3.32h5.14v-13q3.87 0 9.43-1.99 1.28-.47 1.83-.81v15.8h13.98v3.32h-13.98v29.94q0 3.91 1.64 5.63 1.63 1.72 4.35 1.72 4.25 0 7.65-3.78l2.25 2q-3.06 3.78-8.33 5.05-1.74.43-3.65.43"></path><rect width="32.29" height="60.11" x="-16.14" y="-30.05" fill="none" rx="0" ry="0" transform="translate(-61.66 -5.33)"></rect><path fill="#f3f2ee" d="M-42.155 20.065h6.89v-64.91h-7.31v-3.32h18.35v33.35q6.2-5.99 14.61-5.99 5.65 0 10.07 2.89 5.61 3.74 5.61 11.89v26.09h6.88v3.31h-24.81v-3.31h6.88v-26.94q0-4.97-1.04-6.75-1.04-1.78-2.33-2.46-1.3-.68-3.95-.68-2.66 0-5.97 1.61-3.32 1.61-5.95 4.84v30.38h6.88v3.31h-24.81Z"></path><rect width="55.52" height="71.54" x="-27.76" y="-35.77" fill="none" rx="0" ry="0" transform="translate(-14.31 -11.9)"></rect><path fill="#f3f2ee" d="M16.345-16.765h-2.93v-3.32h20.05v3.32h-5.1l11.77 26.76 12.06-30.08h2.98l13.5 29.99 10.12-26.67h-6.21v-3.32h14.7v3.32h-4.71l-15.51 40.99h-3.4l-13.63-29.44-11.81 29.44h-3.36Z"></path><rect width="73.87" height="44.31" x="-36.94" y="-22.16" fill="none" rx="0" ry="0" transform="translate(50.85 2.57)"></rect><path fill="#f3f2ee" d="M118.385 18.575q-4.93 5.65-13.21 5.65-6.29 0-10.84-3.5-4.54-3.51-4.54-9.18t4.46-8.92q4.46-3.25 11.49-3.25t11.74 3.52v-10.11q0-5.14-1.27-6.96-1.27-1.83-2.99-2.55-1.72-.72-3.81-.72-3.27 0-5.52.74-2.25.74-3.02 1.51 1.96.59 3.02 2.97.34.85.34 2.04 0 2.34-1.7 3.89-1.7 1.55-3.4 1.55-2.97 0-4.63-1.57-1.65-1.58-1.65-3.78 0-2.21.8-3.64.81-1.42 2.17-2.57 2.59-2.16 6.52-3.31 3.93-1.15 7.37-1.15 9.56 0 14.15 3.87 4.58 3.86 4.58 10.79v22.64q0 3.53 1.75 3.53 1.74 0 3.35-2.13l2.21 1.83q-2.89 4.37-9.43 4.37-2.29 0-4.65-1.44-2.36-1.44-3.29-4.12m-.77-11.89q-3.61-3.53-7.9-3.53-4.29 0-6.46 2.02-2.16 2.02-2.16 6.48 0 6.58 4.63 7.98 1.31.43 2.67.43 3.87 0 7.4-2.98 1.02-.89 1.82-1.91Z"></path><rect width="45.96" height="44.99" x="-22.98" y="-22.5" fill="none" rx="0" ry="0" transform="translate(113.28 2.23)"></rect><path fill="#f3f2ee" d="m140.625 37.035.56-.59q.56-.58 1.6-1.03 1.04-.44 3.02-.44 1.97 0 3.4 1.51 1.42 1.5 1.42 3.29 0 1.78-1.06 3.23 1.61-.26 3.27-2.49 1.66-2.23 3.91-6.86l3.9-9.43-19.62-40.99h-4.55v-3.32h22.9v3.32h-5.9l12.82 29.14 11.47-29.14h-7.43v-3.32h15.93v3.32h-4.33l-16.82 40.99-5.14 11.55q-3.02 5.99-5.12 7.99-2.11 2-3.81 2.7-1.69.7-3.52.7-3.44 0-5.74-1.89-2.29-1.89-2.29-4.48 0-2.59 1.13-3.76"></path><rect width="49.79" height="67.25" x="-24.89" y="-33.63" fill="none" rx="0" ry="0" transform="translate(161.87 14.04)"></rect></g></g><path fill="#f3f2ee" d="M53.834 169.678c-9.263-5.483-15.88-15.124-16.257-26.466-.567-21.172 14.178-31.57 22.874-45.748 12.476-20.416 9.074-33.082 9.074-33.082s10.397 5.86 16.446 27.6c1.89 6.428 2.269 12.855 1.701 18.904-.945 15.312-7.561 29.112-7.561 29.112s11.531-2.457 14.745-23.44c5.293 5.482 10.208 13.421 10.775 21.739.945 14.367-7.561 27.6-20.416 33.271 22.307-5.104 38.186-24.008 43.668-37.808 6.995-17.392 5.104-32.893 3.97-46.315-1.512-18.337 4.915-31.948 4.915-31.948s-12.288 3.592-21.362 18.526c-4.158 6.806-5.86 16.825-5.86 16.825s.945-8.885-4.915-25.142c-5.86-15.88-11.153-21.551-14.367-33.271-4.159-15.69 5.104-31.003 5.104-31.003S59.694 8.237 43.06 40.185c-14.745 28.356-8.696 45.37-8.696 45.37s-6.238-5.86-9.452-13.99c-3.214-8.128-2.457-15.5-2.457-15.5s-26.088 28.734-13.422 64.84c8.507 25.332 24.953 41.967 44.802 48.773"></path></svg></svg>